<svg width="96" height="96" viewBox="0 0 96 96" fill="none" xmlns="http://www.w3.org/2000/svg">
<path d="M63.2471 50.6257C63.2471 47.8317 62.1054 35.4265 47.1499 35.4265C39.615 35.4265 31.6235 40.3439 31.6235 50.6257C31.6235 59.0075 36.8751 63.8132 42.9258 65.266C44.1816 65.6013 45.3233 65.7131 46.5791 65.8248C44.7524 73.9832 41.0992 83.2591 33.7927 94.3232C33.336 94.9938 33.9068 95.9996 34.706 95.9996H47.1499C47.4924 95.9996 47.8349 95.7761 48.0632 95.5526C59.9363 79.4593 63.2471 59.9016 63.2471 50.6257Z" fill="#2196F3"/>
<path d="M47.4918 27.7161C55.3102 27.7161 61.6482 21.5116 61.6482 13.8581C61.6482 6.20447 55.3102 0 47.4918 0C39.6735 0 33.3354 6.20447 33.3354 13.8581C33.3354 21.5116 39.6735 27.7161 47.4918 27.7161Z" fill="#2196F3"/>
</svg>
