<svg width="16" height="15" viewBox="0 0 16 15" fill="none" xmlns="http://www.w3.org/2000/svg">
<path d="M11.5909 1.54314C11.7763 1.37094 11.9964 1.23435 12.2387 1.14116C12.481 1.04796 12.7407 1 13.003 1C13.2652 1 13.5249 1.04796 13.7672 1.14116C14.0095 1.23435 14.2296 1.37094 14.4151 1.54314C14.6005 1.71533 14.7476 1.91976 14.848 2.14474C14.9483 2.36973 15 2.61086 15 2.85439C15 3.09791 14.9483 3.33904 14.848 3.56403C14.7476 3.78901 14.6005 3.99344 14.4151 4.16563L4.88331 13.0166L1 14L2.05909 10.3941L11.5909 1.54314Z" stroke="white" stroke-width="2" stroke-linecap="round" stroke-linejoin="round"/>
</svg>
